<?xml version="1.0" encoding="UTF-8" standalone="no"?>
<svg width="640" height="640" class="powerbutton"
  version="1.1" xmlns="http://www.w3.org/2000/svg" xmlns:xlink="http://www.w3.org/1999/xlink" preserveAspectRatio="xMidYMid meet" viewBox="0 0 640 640">
  <defs>
    <path d="M275.27 0L365.91 0L365.91 323.16L275.27 323.16L275.27 0Z" id="bdzVB00y7"></path>
    <path d="M448.95 113.4L458.45 118.55L467.72 124.06L476.76 129.91L485.56 136.09L494.1 142.6L502.38 149.42L510.39 156.55L518.12 163.97L525.56 171.69L532.71 179.68L539.54 187.95L546.06 196.47L552.25 205.25L558.11 214.27L563.63 223.53L568.79 233.01L573.6 242.71L578.03 252.62L582.08 262.73L585.75 273.02L589.01 283.5L591.87 294.14L594.32 304.95L596.34 315.92L597.93 327.03L599.07 338.27L599.77 349.64L600 361.13L599.77 372.61L599.07 383.98L597.93 395.23L596.34 406.34L594.32 417.3L591.87 428.11L589.01 438.76L585.75 449.23L582.08 459.53L578.03 469.63L573.6 479.54L568.79 489.24L563.63 498.72L558.11 507.98L552.25 517L546.06 525.78L539.54 534.31L532.71 542.57L525.56 550.57L518.12 558.28L510.39 565.71L502.38 572.84L494.1 579.66L485.56 586.16L476.76 592.35L467.72 598.19L458.45 603.7L448.95 608.85L439.23 613.65L429.3 618.07L419.18 622.12L408.86 625.77L398.37 629.03L387.7 631.89L376.87 634.33L365.89 636.35L354.76 637.93L343.49 639.07L332.1 639.77L320.59 640L309.08 639.77L297.69 639.07L286.42 637.93L275.29 636.35L264.31 634.33L253.48 631.89L242.81 629.03L232.31 625.77L222 622.12L211.87 618.07L201.95 613.65L192.23 608.85L182.73 603.7L173.45 598.19L164.41 592.35L155.62 586.16L147.07 579.66L138.79 572.84L130.78 565.71L123.05 558.28L115.61 550.57L108.47 542.57L101.64 534.31L95.12 525.78L88.92 517L83.06 507.98L77.55 498.72L72.38 489.24L67.58 479.54L63.15 469.63L59.1 459.53L55.43 449.23L52.16 438.76L49.3 428.11L46.86 417.3L44.84 406.34L43.25 395.23L42.1 383.98L41.41 372.61L41.18 361.13L41.41 349.64L42.1 338.27L43.25 327.03L44.84 315.92L46.86 304.95L49.3 294.14L52.16 283.5L55.43 273.02L59.1 262.73L63.15 252.62L67.58 242.71L72.38 233.01L77.55 223.53L83.06 214.27L88.92 205.25L95.12 196.47L101.64 187.95L108.47 179.68L115.61 171.69L123.05 163.97L130.78 156.55L138.79 149.42L147.07 142.6L155.62 136.09L164.41 129.91L173.45 124.06L182.73 118.55L192.23 113.4L201.95 108.61L211.87 104.18L220 100.94L220 198.51L215.37 201.5L209.29 205.77L203.39 210.27L197.67 214.98L192.13 219.91L186.79 225.04L181.65 230.37L176.71 235.9L171.99 241.61L167.48 247.5L163.2 253.57L159.15 259.81L155.34 266.2L151.77 272.76L148.45 279.46L145.39 286.31L142.59 293.29L140.06 300.4L137.8 307.64L135.82 315L134.13 322.47L132.74 330.05L131.64 337.73L130.85 345.5L130.37 353.35L130.21 361.29L130.37 369.23L130.85 377.09L131.64 384.86L132.74 392.54L134.13 400.11L135.82 407.58L137.8 414.94L140.06 422.18L142.59 429.3L145.39 436.28L148.45 443.13L151.77 449.83L155.34 456.38L159.15 462.78L163.2 469.01L167.48 475.08L171.99 480.97L176.71 486.69L181.65 492.21L186.79 497.54L192.13 502.67L197.67 507.6L203.39 512.31L209.29 516.81L215.37 521.08L221.62 525.12L228.03 528.93L234.6 532.49L241.31 535.8L248.17 538.86L255.17 541.66L262.3 544.18L269.55 546.44L276.92 548.41L284.41 550.1L292 551.49L299.69 552.59L307.48 553.38L315.35 553.85L323.3 554.02L331.26 553.85L339.13 553.38L346.92 552.59L354.61 551.49L362.2 550.1L369.68 548.41L377.05 546.44L384.31 544.18L391.44 541.66L398.43 538.86L405.29 535.8L412.01 532.49L418.58 528.93L424.99 525.12L431.23 521.08L437.31 516.81L443.22 512.31L448.94 507.6L454.47 502.67L459.81 497.54L464.96 492.21L469.89 486.69L474.62 480.97L479.12 475.08L483.4 469.01L487.45 462.78L491.26 456.38L494.83 449.83L498.15 443.13L501.21 436.28L504.01 429.3L506.55 422.18L508.8 414.94L510.78 407.58L512.47 400.11L513.87 392.54L514.97 384.86L515.76 377.09L516.24 369.23L516.4 361.29L516.24 353.35L515.76 345.5L514.97 337.73L513.87 330.05L512.47 322.47L510.78 315L508.8 307.64L506.55 300.4L504.01 293.29L501.21 286.31L498.15 279.46L494.83 272.76L491.26 266.2L487.45 259.81L483.4 253.57L479.12 247.5L474.62 241.61L469.89 235.9L464.96 230.37L459.81 225.04L454.47 219.91L448.94 214.98L443.22 210.27L437.31 205.77L431.23 201.5L424.99 197.46L420 194.5L420 100.47L429.3 104.18L439.23 108.61L439.23 108.61L448.95 113.4Z" id="b5d0mN9OSC"></path>
  </defs>
  <g>
    <g>
      <g>
        <use xlink:href="#bdzVB00y7" opacity="1" fill-opacity="1"></use>
        <!-- fill="#122b3b" -->
      </g>
      <g>
        <use xlink:href="#b5d0mN9OSC" opacity="1" fill-opacity="1"></use>
      </g>
    </g>
  </g>
</svg>
